<?xml version="1.0" standalone="no"?>
<!DOCTYPE svg PUBLIC "-//W3C//DTD SVG 20010904//EN"
 "http://www.w3.org/TR/2001/REC-SVG-20010904/DTD/svg10.dtd">
<svg version="1.0" xmlns="http://www.w3.org/2000/svg"
 width="64.000000pt" height="64.000000pt" viewBox="0 0 64.000000 64.000000"
 preserveAspectRatio="xMidYMid meet">

<g transform="translate(0.000000,64.000000) scale(0.100000,-0.100000)"
fill="#000000" stroke="none">
<path d="M124 606 c-10 -26 4 -48 28 -44 33 4 33 52 0 56 -13 2 -25 -3 -28
-12z m36 -16 c0 -5 -4 -10 -10 -10 -5 0 -10 5 -10 10 0 6 5 10 10 10 6 0 10
-4 10 -10z"/>
<path d="M254 576 c-10 -26 4 -48 28 -44 33 4 33 52 0 56 -13 2 -25 -3 -28
-12z m36 -16 c0 -5 -4 -10 -10 -10 -5 0 -10 5 -10 10 0 6 5 10 10 10 6 0 10
-4 10 -10z"/>
<path d="M369 561 c-19 -20 -29 -40 -29 -60 0 -30 2 -31 41 -31 52 0 99 42 99
89 0 30 -2 31 -41 31 -31 0 -47 -6 -70 -29z m91 -5 c0 -24 -41 -66 -63 -66
-22 0 -21 1 3 20 14 10 21 22 17 26 -4 4 -16 -1 -27 -11 -29 -26 -38 -9 -10
20 26 27 80 35 80 11z"/>
<path d="M42 514 c-28 -20 -28 -37 3 -90 l25 -42 -25 -16 c-30 -20 -33 -65 -9
-146 22 -75 109 -162 184 -184 68 -20 132 -20 201 0 101 30 199 158 199 261 0
26 -32 63 -54 63 -12 0 -13 11 -9 53 6 59 -7 80 -53 80 -40 0 -68 -35 -66 -82
2 -49 -14 -54 -52 -16 -14 14 -31 25 -38 25 -7 1 -22 15 -33 33 -29 46 -67 64
-103 51 -24 -9 -33 -8 -51 8 -28 22 -89 24 -119 2z m114 -27 c20 -18 28 -35
31 -74 6 -60 -10 -78 -26 -30 -14 40 -66 105 -77 94 -4 -4 2 -17 14 -30 24
-25 67 -116 59 -124 -3 -3 -10 -2 -16 2 -13 7 -89 117 -97 140 -18 45 66 61
112 22z m126 -27 l30 -30 -31 -29 c-19 -18 -31 -39 -31 -55 0 -19 -5 -26 -19
-26 -17 0 -17 3 5 47 13 25 24 52 24 60 0 26 -16 13 -30 -24 l-14 -38 -8 50
c-4 28 -6 56 -3 63 8 22 46 13 77 -18z m258 -35 c0 -18 -4 -37 -10 -40 -20
-13 -9 -36 20 -42 50 -9 45 -23 -8 -23 l-50 0 8 33 c4 17 10 42 14 55 5 14 3
22 -4 22 -12 0 -14 -5 -30 -67 -10 -38 -14 -43 -40 -43 -20 0 -30 5 -30 15 0
9 9 15 25 15 24 0 26 3 24 46 -2 38 1 50 20 65 33 27 61 10 61 -36z m-203 -38
c3 10 10 10 25 2 14 -8 18 -17 14 -34 -4 -14 -1 -25 7 -28 6 -3 -16 -6 -50 -6
-36 -1 -63 3 -63 9 0 6 5 10 11 10 6 0 8 8 4 19 -7 24 25 47 38 28 6 -9 10 -9
14 0z m-239 -39 c20 -20 14 -28 -23 -28 -38 0 -46 13 -17 29 22 13 26 13 40
-1z m497 -85 c-17 -94 -102 -187 -193 -213 -161 -44 -329 56 -357 213 l-7 37
282 0 282 0 -7 -37z"/>
<path d="M320 350 c0 -5 5 -10 10 -10 6 0 10 5 10 10 0 6 -4 10 -10 10 -5 0
-10 -4 -10 -10z"/>
<path d="M107 174 c19 -29 93 -87 101 -79 6 5 -99 105 -110 105 -5 0 -1 -12 9
-26z"/>
<path d="M230 90 c0 -5 5 -10 10 -10 6 0 10 5 10 10 0 6 -4 10 -10 10 -5 0
-10 -4 -10 -10z"/>
</g>
</svg>
